<svg width="1360" height="1440" viewBox="0 0 680 720" xmlns="http://www.w3.org/2000/svg" style="background:#ffffff">
<style>
  text { font-family: 'Helvetica Neue', Arial, sans-serif; }
  .th { font-size: 14px; font-weight: 500; }
  .ts { font-size: 12px; font-weight: 400; }
</style>
<defs>
<marker id="arrow" viewBox="0 0 10 10" refX="8" refY="5" markerWidth="6" markerHeight="6" orient="auto-start-reverse"><path d="M2 1L8 5L2 9" fill="none" stroke="context-stroke" stroke-width="1.5" stroke-linecap="round" stroke-linejoin="round"/></marker>
</defs>

<!-- Title -->
<text x="340" y="16" text-anchor="middle" font-size="11" fill="#888780" font-family="Helvetica Neue, Arial, sans-serif">veronica-core v3.7.1 — Architecture overview</text>

<!-- Layer 1: Application / Agent Framework -->
<rect x="140" y="30" width="400" height="52" rx="12" fill="#F1EFE8" stroke="#5F5E5A" stroke-width="0.5"/>
<text class="th" x="340" y="50" text-anchor="middle" dominant-baseline="central" fill="#2C2C2A">Application / Agent framework</text>
<text class="ts" x="340" y="68" text-anchor="middle" dominant-baseline="central" fill="#5F5E5A">OpenAI, Anthropic, LangChain, AG2, CrewAI…</text>

<line x1="340" y1="82" x2="340" y2="110" stroke="#888780" stroke-width="1.5" marker-end="url(#arrow)"/>

<!-- Layer 2: Entry points container -->
<rect x="40" y="110" width="600" height="80" rx="16" fill="#EEEDFE" stroke="#534AB7" stroke-width="0.5"/>
<text class="th" x="340" y="130" text-anchor="middle" dominant-baseline="central" fill="#3C3489">Entry layer</text>

<rect x="60" y="142" width="120" height="36" rx="6" fill="#E1F5EE" stroke="#0F6E56" stroke-width="0.5"/>
<text class="th" x="120" y="160" text-anchor="middle" dominant-baseline="central" fill="#085041">SDK patch</text>

<rect x="196" y="142" width="120" height="36" rx="6" fill="#E1F5EE" stroke="#0F6E56" stroke-width="0.5"/>
<text class="th" x="256" y="160" text-anchor="middle" dominant-baseline="central" fill="#085041">@veronica_guard</text>

<rect x="332" y="142" width="120" height="36" rx="6" fill="#E1F5EE" stroke="#0F6E56" stroke-width="0.5"/>
<text class="th" x="392" y="160" text-anchor="middle" dominant-baseline="central" fill="#085041">init() quickstart</text>

<rect x="468" y="142" width="156" height="36" rx="6" fill="#E1F5EE" stroke="#0F6E56" stroke-width="0.5"/>
<text class="th" x="546" y="160" text-anchor="middle" dominant-baseline="central" fill="#085041">ASGI/WSGI middleware</text>

<line x1="340" y1="190" x2="340" y2="220" stroke="#888780" stroke-width="1.5" marker-end="url(#arrow)"/>

<!-- Layer 3: Enforcement Boundary -->
<rect x="40" y="220" width="600" height="56" rx="12" fill="#FAECE7" stroke="#993C1D" stroke-width="0.5"/>
<text class="th" x="340" y="240" text-anchor="middle" dominant-baseline="central" fill="#712B13">Enforcement boundary (ShieldPipeline)</text>
<text class="ts" x="340" y="258" text-anchor="middle" dominant-baseline="central" fill="#993C1D">ALLOW / DEGRADE / HALT per hook evaluation</text>

<line x1="200" y1="276" x2="200" y2="310" stroke="#888780" stroke-width="1.5" marker-end="url(#arrow)"/>
<line x1="480" y1="276" x2="480" y2="310" stroke="#888780" stroke-width="1.5" marker-end="url(#arrow)"/>

<!-- Layer 4: wrap_llm_call / wrap_tool_call -->
<rect x="100" y="310" width="200" height="56" rx="8" fill="#E6F1FB" stroke="#185FA5" stroke-width="0.5"/>
<text class="th" x="200" y="330" text-anchor="middle" dominant-baseline="central" fill="#0C447C">wrap_llm_call()</text>
<text class="ts" x="200" y="348" text-anchor="middle" dominant-baseline="central" fill="#185FA5">LLM call containment</text>

<rect x="380" y="310" width="200" height="56" rx="8" fill="#E6F1FB" stroke="#185FA5" stroke-width="0.5"/>
<text class="th" x="480" y="330" text-anchor="middle" dominant-baseline="central" fill="#0C447C">wrap_tool_call()</text>
<text class="ts" x="480" y="348" text-anchor="middle" dominant-baseline="central" fill="#185FA5">Tool / MCP containment</text>

<line x1="200" y1="366" x2="200" y2="400" stroke="#888780" stroke-width="1.5" marker-end="url(#arrow)"/>
<line x1="480" y1="366" x2="480" y2="400" stroke="#888780" stroke-width="1.5" marker-end="url(#arrow)"/>

<!-- Layer 5: Core enforcement features -->
<rect x="40" y="400" width="600" height="160" rx="16" fill="#FAEEDA" stroke="#854F0B" stroke-width="0.5"/>
<text class="th" x="340" y="420" text-anchor="middle" dominant-baseline="central" fill="#412402">Core enforcement primitives</text>

<!-- Row 1 -->
<rect x="60" y="434" width="110" height="36" rx="6" fill="#EAF3DE" stroke="#3B6D11" stroke-width="0.5"/>
<text class="ts" x="115" y="452" text-anchor="middle" dominant-baseline="central" fill="#27500A">Budget cap</text>

<rect x="180" y="434" width="110" height="36" rx="6" fill="#EAF3DE" stroke="#3B6D11" stroke-width="0.5"/>
<text class="ts" x="235" y="452" text-anchor="middle" dominant-baseline="central" fill="#27500A">Circuit breaker</text>

<rect x="300" y="434" width="110" height="36" rx="6" fill="#EAF3DE" stroke="#3B6D11" stroke-width="0.5"/>
<text class="ts" x="355" y="452" text-anchor="middle" dominant-baseline="central" fill="#27500A">Step limits</text>

<rect x="420" y="434" width="110" height="36" rx="6" fill="#EAF3DE" stroke="#3B6D11" stroke-width="0.5"/>
<text class="ts" x="475" y="452" text-anchor="middle" dominant-baseline="central" fill="#27500A">Token budget</text>

<!-- Row 2 -->
<rect x="60" y="480" width="110" height="36" rx="6" fill="#EAF3DE" stroke="#3B6D11" stroke-width="0.5"/>
<text class="ts" x="115" y="498" text-anchor="middle" dominant-baseline="central" fill="#27500A">Retry control</text>

<rect x="180" y="480" width="110" height="36" rx="6" fill="#EAF3DE" stroke="#3B6D11" stroke-width="0.5"/>
<text class="ts" x="235" y="498" text-anchor="middle" dominant-baseline="central" fill="#27500A">Semantic loop</text>

<rect x="300" y="480" width="110" height="36" rx="6" fill="#EAF3DE" stroke="#3B6D11" stroke-width="0.5"/>
<text class="ts" x="355" y="498" text-anchor="middle" dominant-baseline="central" fill="#27500A">Degrade ladder</text>

<rect x="420" y="480" width="110" height="36" rx="6" fill="#EAF3DE" stroke="#3B6D11" stroke-width="0.5"/>
<text class="ts" x="475" y="498" text-anchor="middle" dominant-baseline="central" fill="#27500A">Two-phase budget</text>

<!-- Row 3 -->
<rect x="60" y="524" width="110" height="26" rx="6" fill="#EAF3DE" stroke="#3B6D11" stroke-width="0.5"/>
<text class="ts" x="115" y="537" text-anchor="middle" dominant-baseline="central" fill="#27500A">SafeMode</text>

<rect x="180" y="524" width="110" height="26" rx="6" fill="#EAF3DE" stroke="#3B6D11" stroke-width="0.5"/>
<text class="ts" x="235" y="537" text-anchor="middle" dominant-baseline="central" fill="#27500A">Adaptive budget</text>

<rect x="300" y="524" width="110" height="26" rx="6" fill="#EAF3DE" stroke="#3B6D11" stroke-width="0.5"/>
<text class="ts" x="355" y="537" text-anchor="middle" dominant-baseline="central" fill="#27500A">Time policy</text>

<rect x="420" y="524" width="110" height="26" rx="6" fill="#EAF3DE" stroke="#3B6D11" stroke-width="0.5"/>
<text class="ts" x="475" y="537" text-anchor="middle" dominant-baseline="central" fill="#27500A">Input compress</text>

<line x1="340" y1="560" x2="340" y2="590" stroke="#888780" stroke-width="1.5" marker-end="url(#arrow)"/>

<!-- Layer 6: Decision output -->
<rect x="120" y="590" width="440" height="44" rx="8" fill="#FAECE7" stroke="#993C1D" stroke-width="0.5"/>
<text class="th" x="340" y="612" text-anchor="middle" dominant-baseline="central" fill="#712B13">Decision → ALLOW / DEGRADE / HALT / QUARANTINE</text>

<line x1="340" y1="634" x2="340" y2="660" stroke="#888780" stroke-width="1.5" marker-end="url(#arrow)"/>

<!-- Layer 7: LLM Provider -->
<rect x="140" y="660" width="400" height="44" rx="12" fill="#F1EFE8" stroke="#5F5E5A" stroke-width="0.5"/>
<text class="th" x="340" y="682" text-anchor="middle" dominant-baseline="central" fill="#2C2C2A">LLM provider (OpenAI, Anthropic, etc.)</text>
</svg>