<svg width="1360" height="1360" viewBox="0 0 680 680" xmlns="http://www.w3.org/2000/svg" style="background:#ffffff">
<style>
  text { font-family: 'Helvetica Neue', Arial, sans-serif; }
  .th { font-size: 14px; font-weight: 500; }
  .ts { font-size: 12px; font-weight: 400; }
</style>
<defs>
<marker id="arrow" viewBox="0 0 10 10" refX="8" refY="5" markerWidth="6" markerHeight="6" orient="auto-start-reverse"><path d="M2 1L8 5L2 9" fill="none" stroke="context-stroke" stroke-width="1.5" stroke-linecap="round" stroke-linejoin="round"/></marker>
</defs>

<text x="340" y="16" text-anchor="middle" font-size="11" fill="#888780" font-family="Helvetica Neue, Arial, sans-serif">veronica-core v3.7.1 — Supporting systems</text>

<!-- Central: ExecutionContext -->
<rect x="200" y="30" width="280" height="50" rx="12" fill="#FAECE7" stroke="#993C1D" stroke-width="0.5"/>
<text class="th" x="340" y="48" text-anchor="middle" dominant-baseline="central" fill="#712B13">ExecutionContext</text>
<text class="ts" x="340" y="66" text-anchor="middle" dominant-baseline="central" fill="#993C1D">Chain-level containment</text>

<!-- Arrows from center -->
<line x1="200" y1="55" x2="80" y2="130" stroke="#888780" stroke-width="1" marker-end="url(#arrow)"/>
<line x1="480" y1="55" x2="600" y2="130" stroke="#888780" stroke-width="1" marker-end="url(#arrow)"/>
<line x1="260" y1="80" x2="160" y2="310" stroke="#888780" stroke-width="1" marker-end="url(#arrow)"/>
<line x1="420" y1="80" x2="520" y2="310" stroke="#888780" stroke-width="1" marker-end="url(#arrow)"/>
<line x1="340" y1="80" x2="340" y2="420" stroke="#888780" stroke-width="1" marker-end="url(#arrow)"/>

<!-- Left top: Memory governance -->
<rect x="40" y="120" width="200" height="160" rx="14" fill="#EEEDFE" stroke="#534AB7" stroke-width="0.5"/>
<text class="th" x="140" y="142" text-anchor="middle" dominant-baseline="central" fill="#3C3489">Memory governance</text>

<rect x="56" y="156" width="168" height="30" rx="6" fill="#CECBF6" stroke="#534AB7" stroke-width="0.5"/>
<text class="ts" x="140" y="171" text-anchor="middle" dominant-baseline="central" fill="#26215C">MemoryGovernor + hooks</text>

<rect x="56" y="192" width="168" height="30" rx="6" fill="#CECBF6" stroke="#534AB7" stroke-width="0.5"/>
<text class="ts" x="140" y="207" text-anchor="middle" dominant-baseline="central" fill="#26215C">Action / Provenance / Verdict</text>

<rect x="56" y="228" width="168" height="30" rx="6" fill="#CECBF6" stroke="#534AB7" stroke-width="0.5"/>
<text class="ts" x="140" y="243" text-anchor="middle" dominant-baseline="central" fill="#26215C">View / Scope / Degrade</text>

<!-- Right top: Security -->
<rect x="440" y="120" width="200" height="160" rx="14" fill="#FCEBEB" stroke="#A32D2D" stroke-width="0.5"/>
<text class="th" x="540" y="142" text-anchor="middle" dominant-baseline="central" fill="#791F1F">Security containment</text>

<rect x="456" y="156" width="168" height="30" rx="6" fill="#F7C1C1" stroke="#A32D2D" stroke-width="0.5"/>
<text class="ts" x="540" y="171" text-anchor="middle" dominant-baseline="central" fill="#501313">PolicyEngine + AuditLog</text>

<rect x="456" y="192" width="168" height="30" rx="6" fill="#F7C1C1" stroke="#A32D2D" stroke-width="0.5"/>
<text class="ts" x="540" y="207" text-anchor="middle" dominant-baseline="central" fill="#501313">AuditChain (ed25519)</text>

<rect x="456" y="228" width="168" height="30" rx="6" fill="#F7C1C1" stroke="#A32D2D" stroke-width="0.5"/>
<text class="ts" x="540" y="243" text-anchor="middle" dominant-baseline="central" fill="#501313">Egress / Secret guard</text>

<!-- Left bottom: Distributed -->
<rect x="40" y="300" width="200" height="136" rx="14" fill="#E6F1FB" stroke="#185FA5" stroke-width="0.5"/>
<text class="th" x="140" y="322" text-anchor="middle" dominant-baseline="central" fill="#0C447C">Distributed layer</text>

<rect x="56" y="338" width="168" height="30" rx="6" fill="#B5D4F4" stroke="#185FA5" stroke-width="0.5"/>
<text class="ts" x="140" y="353" text-anchor="middle" dominant-baseline="central" fill="#042C53">Redis budget backend</text>

<rect x="56" y="374" width="168" height="30" rx="6" fill="#B5D4F4" stroke="#185FA5" stroke-width="0.5"/>
<text class="ts" x="140" y="389" text-anchor="middle" dominant-baseline="central" fill="#042C53">Distributed circuit breaker</text>

<rect x="56" y="410" width="168" height="18" rx="4" fill="#B5D4F4" stroke="#185FA5" stroke-width="0.5"/>
<text class="ts" x="140" y="419" text-anchor="middle" dominant-baseline="central" fill="#042C53">Local fallback</text>

<!-- Right bottom: Observability -->
<rect x="440" y="300" width="200" height="136" rx="14" fill="#E1F5EE" stroke="#0F6E56" stroke-width="0.5"/>
<text class="th" x="540" y="322" text-anchor="middle" dominant-baseline="central" fill="#085041">Observability</text>

<rect x="456" y="338" width="168" height="30" rx="6" fill="#9FE1CB" stroke="#0F6E56" stroke-width="0.5"/>
<text class="ts" x="540" y="353" text-anchor="middle" dominant-baseline="central" fill="#04342C">OTel span export</text>

<rect x="456" y="374" width="168" height="30" rx="6" fill="#9FE1CB" stroke="#0F6E56" stroke-width="0.5"/>
<text class="ts" x="540" y="389" text-anchor="middle" dominant-baseline="central" fill="#04342C">Compliance exporter</text>

<rect x="456" y="410" width="168" height="18" rx="4" fill="#9FE1CB" stroke="#0F6E56" stroke-width="0.5"/>
<text class="ts" x="540" y="419" text-anchor="middle" dominant-baseline="central" fill="#04342C">SafetyEvent log</text>

<!-- Center bottom: Declarative Policy -->
<rect x="200" y="420" width="280" height="100" rx="14" fill="#FAEEDA" stroke="#854F0B" stroke-width="0.5"/>
<text class="th" x="340" y="442" text-anchor="middle" dominant-baseline="central" fill="#412402">Declarative policy engine</text>

<rect x="216" y="456" width="120" height="30" rx="6" fill="#FAC775" stroke="#854F0B" stroke-width="0.5"/>
<text class="ts" x="276" y="471" text-anchor="middle" dominant-baseline="central" fill="#412402">YAML / JSON files</text>

<rect x="344" y="456" width="120" height="30" rx="6" fill="#FAC775" stroke="#854F0B" stroke-width="0.5"/>
<text class="ts" x="404" y="471" text-anchor="middle" dominant-baseline="central" fill="#412402">Hot-reload watch</text>

<rect x="216" y="492" width="248" height="20" rx="4" fill="#FAC775" stroke="#854F0B" stroke-width="0.5"/>
<text class="ts" x="340" y="502" text-anchor="middle" dominant-baseline="central" fill="#412402">7 builtin rule types + custom registry</text>

<!-- Framework adapters -->
<text class="th" x="340" y="550" text-anchor="middle" fill="#2C2C2A">Framework adapters</text>

<rect x="40" y="564" width="90" height="30" rx="6" fill="#F1EFE8" stroke="#5F5E5A" stroke-width="0.5"/>
<text class="ts" x="85" y="579" text-anchor="middle" dominant-baseline="central" fill="#2C2C2A">LangChain</text>

<rect x="138" y="564" width="70" height="30" rx="6" fill="#F1EFE8" stroke="#5F5E5A" stroke-width="0.5"/>
<text class="ts" x="173" y="579" text-anchor="middle" dominant-baseline="central" fill="#2C2C2A">AG2</text>

<rect x="216" y="564" width="74" height="30" rx="6" fill="#F1EFE8" stroke="#5F5E5A" stroke-width="0.5"/>
<text class="ts" x="253" y="579" text-anchor="middle" dominant-baseline="central" fill="#2C2C2A">CrewAI</text>

<rect x="298" y="564" width="84" height="30" rx="6" fill="#F1EFE8" stroke="#5F5E5A" stroke-width="0.5"/>
<text class="ts" x="340" y="579" text-anchor="middle" dominant-baseline="central" fill="#2C2C2A">LangGraph</text>

<rect x="390" y="564" width="84" height="30" rx="6" fill="#F1EFE8" stroke="#5F5E5A" stroke-width="0.5"/>
<text class="ts" x="432" y="579" text-anchor="middle" dominant-baseline="central" fill="#2C2C2A">LlamaIndex</text>

<rect x="482" y="564" width="64" height="30" rx="6" fill="#F1EFE8" stroke="#5F5E5A" stroke-width="0.5"/>
<text class="ts" x="514" y="579" text-anchor="middle" dominant-baseline="central" fill="#2C2C2A">MCP</text>

<rect x="554" y="564" width="86" height="30" rx="6" fill="#F1EFE8" stroke="#5F5E5A" stroke-width="0.5"/>
<text class="ts" x="597" y="579" text-anchor="middle" dominant-baseline="central" fill="#2C2C2A">ROS2</text>

<!-- Execution graph -->
<text class="th" x="340" y="624" text-anchor="middle" fill="#2C2C2A">Execution graph + pricing</text>

<rect x="80" y="636" width="160" height="30" rx="6" fill="#FBEAF0" stroke="#993556" stroke-width="0.5"/>
<text class="ts" x="160" y="651" text-anchor="middle" dominant-baseline="central" fill="#4B1528">ExecutionGraph + observer</text>

<rect x="260" y="636" width="160" height="30" rx="6" fill="#FBEAF0" stroke="#993556" stroke-width="0.5"/>
<text class="ts" x="340" y="651" text-anchor="middle" dominant-baseline="central" fill="#4B1528">DecisionEnvelope audit</text>

<rect x="440" y="636" width="160" height="30" rx="6" fill="#FBEAF0" stroke="#993556" stroke-width="0.5"/>
<text class="ts" x="520" y="651" text-anchor="middle" dominant-baseline="central" fill="#4B1528">Auto pricing (estimate)</text>
</svg>